Coordinates
version=1
nRows=7
nColumns=46
inDegrees=yes

Units are S.I. units (second, meters, Newtons, ...)
Angles are in degrees.

endheader
time	pelvis_tilt	pelvis_list	pelvis_rotation	pelvis_tx	pelvis_ty	pelvis_tz	bb_angle	bb_tx	bb_ty	bb_tz	hip_flexion_r	hip_adduction_r	hip_rotation_r	knee_angle_r	knee_angle_r_beta	ankle_angle_r	subtalar_angle_r	mtp_angle_r	crank_angle_r	hip_flexion_l	hip_adduction_l	hip_rotation_l	knee_angle_l	knee_angle_l_beta	ankle_angle_l	subtalar_angle_l	mtp_angle_l	crank_angle_l	lumbar_extension	lumbar_bending	lumbar_rotation	arm_flex_r	arm_add_r	arm_rot_r	elbow_flex_r	pro_sup_r	wrist_flex_r	wrist_dev_r	arm_flex_l	arm_add_l	arm_rot_l	elbow_flex_l	pro_sup_l	wrist_flex_l	wrist_dev_l
      2.50500000	    -24.61145151	      3.82722056	     -5.65080051	      0.37935276	      1.13308600	     -0.20888259	      0.00000000	      0.50000000	      0.00000000	      0.25000000	     56.47811261	      0.01383996	      8.83682085	     58.39601605	      1.01920275	     19.69020418	     -9.78971835	      0.00000000	      0.00000000	     49.77956426	     -4.49270899	      0.97116414	     81.36298421	      1.42005196	    -14.26884237	     -5.34090053	      0.00000000	      0.00000000	    -55.09280630	     -0.61591850	      5.79938313	     50.89999304	    -23.66730011	     27.11313585	     83.24611560	     58.80408290	      0.00000000	      0.00000000	     56.47138093	    -17.74088931	     26.85282161	     64.19587071	     53.08841877	      0.00000000	      0.00000000
      2.51000000	    -24.43210231	      4.60524848	     -4.68190169	      0.37985592	      1.12985139	     -0.20930991	      0.00000000	      0.50000000	      0.00000000	      0.25000000	     55.42535976	     -1.17050659	      9.27197324	     57.07192728	      0.99609304	     19.09041508	    -10.64446017	      0.00000000	      0.00000000	     50.96269533	     -3.53274240	      0.97990762	     83.78672574	      1.46235423	    -13.38825257	     -4.51260267	      0.00000000	      0.00000000	    -54.67835638	     -0.96178920	      4.74875011	     50.43270162	    -24.73958670	     27.50206538	     83.23835196	     58.86473194	      0.00000000	      0.00000000	     56.56737300	    -17.52231733	     27.41588693	     63.95791649	     53.11545621	      0.00000000	      0.00000000
      2.51500000	    -24.25982974	      5.22369682	     -3.64212984	      0.38034622	      1.12676785	     -0.20961913	      0.00000000	      0.50000000	      0.00000000	      0.25000000	     54.25063085	     -2.25454864	      9.58553805	     55.67211644	      0.97166173	     18.19515430	    -11.14264010	      0.00000000	      0.00000000	     52.14822832	     -2.68676089	      1.09451672	     86.18810661	      1.50426624	    -12.34512407	     -3.48453502	      0.00000000	      0.00000000	    -54.27032215	     -1.10869548	      3.94561030	     50.10548663	    -26.14583711	     28.24854803	     83.32191811	     58.98404189	      0.00000000	      0.00000000	     56.88051016	    -17.27481941	     28.32550648	     63.52936049	     53.15004441	      0.00000000	      0.00000000
      2.52000000	    -24.13000390	      6.04225576	     -2.62782268	      0.38083893	      1.12379608	     -0.21007052	      0.00000000	      0.50000000	      0.00000000	      0.25000000	     53.04646825	     -3.48140344	     10.08236645	     54.19041092	      0.94580109	     17.60854258	    -11.67811066	      0.00000000	      0.00000000	     53.33544389	     -1.63591426	      0.97076658	     88.41537614	      1.54313942	    -11.61198425	     -3.22949073	      0.00000000	      0.00000000	    -53.83200608	     -1.54847389	      2.80850419	     49.62182509	    -27.15873687	     28.65782036	     83.12812007	     59.01730520	      0.00000000	      0.00000000	     56.99632784	    -17.05612796	     28.82417142	     63.29830809	     53.16982517	      0.00000000	      0.00000000
      2.52500000	    -24.18282463	      6.61561677	     -1.51959607	      0.38094156	      1.12058603	     -0.21046683	      0.00000000	      0.50000000	      0.00000000	      0.25000000	     52.00175078	     -4.55700209	     10.34588733	     52.77573831	      0.92111040	     16.85077181	    -12.59234020	      0.00000000	      0.00000000	     54.79980934	     -0.79407055	      1.06250374	     90.70133631	      1.58303695	    -10.72014705	     -2.39242467	      0.00000000	      0.00000000	    -53.17097347	     -1.77072895	      1.95854038	     49.63095572	    -28.98914458	     30.24570180	     83.02306906	     59.20669976	      0.00000000	      0.00000000	     57.57875566	    -16.70743410	     30.20264899	     62.29095349	     53.16459573	      0.00000000	      0.00000000
      2.53000000	    -24.09920868	      7.42518826	     -0.30879994	      0.38138174	      1.11782211	     -0.21093797	      0.00000000	      0.50000000	      0.00000000	      0.25000000	     50.75533365	     -5.93730573	     10.64517745	     51.39679349	      0.89704327	     16.33585654	    -13.17966646	      0.00000000	      0.00000000	     56.07886655	      0.42655951	      0.92025795	     92.72060004	      1.61827976	    -10.48145565	     -2.59644310	      0.00000000	      0.00000000	    -52.68531872	     -2.15339050	      0.67653337	     49.21032825	    -29.84246921	     30.76923439	     82.61749089	     59.21722290	      0.00000000	      0.00000000	     57.73512000	    -16.43384202	     30.81083354	     61.89421670	     53.17021845	      0.00000000	      0.00000000
      2.53500000	    -24.10091428	      8.14293526	      0.91663014	      0.38171931	      1.11520233	     -0.21146830	      0.00000000	      0.50000000	      0.00000000	      0.25000000	     49.51764183	     -7.26668459	     10.78872778	     49.97145041	      0.87216634	     15.80429095	    -13.79468476	      0.00000000	      0.00000000	     57.41824639	      1.55594952	      0.83127623	     94.73023623	      1.65335452	     -9.86922365	     -2.51542009	      0.00000000	      0.00000000	    -52.13096706	     -2.47950918	     -0.51260236	     48.79493804	    -30.75193062	     31.35388686	     82.14242310	     59.22570113	      0.00000000	      0.00000000	     57.96979837	    -16.32446823	     30.83935113	     61.46352064	     53.10336978	      0.00000000	      0.00000000
